<mxfile host="app.diagrams.net" agent="Mozilla/5.0 (Windows NT 10.0; Win64; x64) AppleWebKit/537.36 (KHTML, like Gecko) Chrome/140.0.0.0 Safari/537.36" version="28.2.5">
  <diagram name="Page-1" id="NITpwZIo8tHkWfgMSPuM">
    <mxGraphModel dx="1042" dy="551" grid="1" gridSize="10" guides="1" tooltips="1" connect="1" arrows="1" fold="1" page="1" pageScale="1" pageWidth="850" pageHeight="1100" math="0" shadow="0">
      <root>
        <mxCell id="0" />
        <mxCell id="1" parent="0" />
        <mxCell id="hM63zy9M-1fN7giM5BKr-3" value="" style="edgeStyle=orthogonalEdgeStyle;rounded=0;orthogonalLoop=1;jettySize=auto;html=1;" edge="1" parent="1" source="hM63zy9M-1fN7giM5BKr-1" target="hM63zy9M-1fN7giM5BKr-2">
          <mxGeometry relative="1" as="geometry" />
        </mxCell>
        <mxCell id="hM63zy9M-1fN7giM5BKr-1" value="START" style="strokeWidth=2;html=1;shape=mxgraph.flowchart.terminator;whiteSpace=wrap;fontSize=14;" vertex="1" parent="1">
          <mxGeometry x="372.5" y="10" width="105" height="50" as="geometry" />
        </mxCell>
        <mxCell id="hM63zy9M-1fN7giM5BKr-5" value="" style="edgeStyle=orthogonalEdgeStyle;rounded=0;orthogonalLoop=1;jettySize=auto;html=1;" edge="1" parent="1" source="hM63zy9M-1fN7giM5BKr-2" target="hM63zy9M-1fN7giM5BKr-4">
          <mxGeometry relative="1" as="geometry" />
        </mxCell>
        <mxCell id="hM63zy9M-1fN7giM5BKr-2" value="define f(x)&lt;div&gt;define [a, b]&lt;/div&gt;&lt;div&gt;define max_iter&lt;/div&gt;&lt;div&gt;define tolerance&lt;/div&gt;" style="verticalLabelPosition=middle;verticalAlign=middle;html=1;shape=hexagon;perimeter=hexagonPerimeter2;arcSize=6;size=0.27;labelPosition=center;align=center;fontSize=14;" vertex="1" parent="1">
          <mxGeometry x="340" y="110" width="170" height="80" as="geometry" />
        </mxCell>
        <mxCell id="hM63zy9M-1fN7giM5BKr-7" value="" style="edgeStyle=orthogonalEdgeStyle;rounded=0;orthogonalLoop=1;jettySize=auto;html=1;" edge="1" parent="1" source="hM63zy9M-1fN7giM5BKr-4" target="hM63zy9M-1fN7giM5BKr-6">
          <mxGeometry relative="1" as="geometry" />
        </mxCell>
        <mxCell id="hM63zy9M-1fN7giM5BKr-38" value="&lt;font style=&quot;font-size: 14px;&quot;&gt;T&lt;/font&gt;" style="edgeLabel;html=1;align=center;verticalAlign=middle;resizable=0;points=[];" vertex="1" connectable="0" parent="hM63zy9M-1fN7giM5BKr-7">
          <mxGeometry x="-0.32" y="-1" relative="1" as="geometry">
            <mxPoint as="offset" />
          </mxGeometry>
        </mxCell>
        <mxCell id="hM63zy9M-1fN7giM5BKr-40" style="edgeStyle=orthogonalEdgeStyle;rounded=0;orthogonalLoop=1;jettySize=auto;html=1;exitX=0;exitY=0.5;exitDx=0;exitDy=0;exitPerimeter=0;" edge="1" parent="1" source="hM63zy9M-1fN7giM5BKr-4" target="hM63zy9M-1fN7giM5BKr-39">
          <mxGeometry relative="1" as="geometry" />
        </mxCell>
        <mxCell id="hM63zy9M-1fN7giM5BKr-41" value="&lt;span style=&quot;font-size: 14px;&quot;&gt;F&lt;/span&gt;" style="edgeLabel;html=1;align=center;verticalAlign=middle;resizable=0;points=[];" vertex="1" connectable="0" parent="hM63zy9M-1fN7giM5BKr-40">
          <mxGeometry x="-0.0002" y="-1" relative="1" as="geometry">
            <mxPoint as="offset" />
          </mxGeometry>
        </mxCell>
        <mxCell id="hM63zy9M-1fN7giM5BKr-4" value="f(a) * f(b)&lt;div&gt;&amp;lt; 0 ?&lt;/div&gt;" style="strokeWidth=2;html=1;shape=mxgraph.flowchart.decision;whiteSpace=wrap;fontSize=14;" vertex="1" parent="1">
          <mxGeometry x="364.38" y="240" width="121.25" height="110" as="geometry" />
        </mxCell>
        <mxCell id="hM63zy9M-1fN7giM5BKr-9" value="" style="edgeStyle=orthogonalEdgeStyle;rounded=0;orthogonalLoop=1;jettySize=auto;html=1;" edge="1" parent="1" source="hM63zy9M-1fN7giM5BKr-6" target="hM63zy9M-1fN7giM5BKr-8">
          <mxGeometry relative="1" as="geometry" />
        </mxCell>
        <mxCell id="hM63zy9M-1fN7giM5BKr-31" value="&lt;font style=&quot;font-size: 14px;&quot;&gt;T&lt;/font&gt;" style="edgeLabel;html=1;align=center;verticalAlign=middle;resizable=0;points=[];" vertex="1" connectable="0" parent="hM63zy9M-1fN7giM5BKr-9">
          <mxGeometry x="-0.2495" y="1" relative="1" as="geometry">
            <mxPoint as="offset" />
          </mxGeometry>
        </mxCell>
        <mxCell id="hM63zy9M-1fN7giM5BKr-26" style="edgeStyle=orthogonalEdgeStyle;rounded=0;orthogonalLoop=1;jettySize=auto;html=1;exitX=0;exitY=0.5;exitDx=0;exitDy=0;exitPerimeter=0;entryX=0.5;entryY=0;entryDx=0;entryDy=0;" edge="1" parent="1" source="hM63zy9M-1fN7giM5BKr-6" target="hM63zy9M-1fN7giM5BKr-24">
          <mxGeometry relative="1" as="geometry" />
        </mxCell>
        <mxCell id="hM63zy9M-1fN7giM5BKr-29" value="&lt;font style=&quot;font-size: 14px;&quot;&gt;F&lt;/font&gt;" style="edgeLabel;html=1;align=center;verticalAlign=middle;resizable=0;points=[];" vertex="1" connectable="0" parent="hM63zy9M-1fN7giM5BKr-26">
          <mxGeometry x="-0.5815" y="1" relative="1" as="geometry">
            <mxPoint as="offset" />
          </mxGeometry>
        </mxCell>
        <mxCell id="hM63zy9M-1fN7giM5BKr-6" value="i = 0,&lt;div&gt;i &amp;lt; max_iter?&lt;/div&gt;" style="strokeWidth=2;html=1;shape=mxgraph.flowchart.decision;whiteSpace=wrap;fontSize=14;" vertex="1" parent="1">
          <mxGeometry x="364.38" y="400" width="121.25" height="110" as="geometry" />
        </mxCell>
        <mxCell id="hM63zy9M-1fN7giM5BKr-11" value="" style="edgeStyle=orthogonalEdgeStyle;rounded=0;orthogonalLoop=1;jettySize=auto;html=1;" edge="1" parent="1" source="hM63zy9M-1fN7giM5BKr-8" target="hM63zy9M-1fN7giM5BKr-10">
          <mxGeometry relative="1" as="geometry" />
        </mxCell>
        <mxCell id="hM63zy9M-1fN7giM5BKr-32" value="&lt;font style=&quot;font-size: 14px;&quot;&gt;T&lt;/font&gt;" style="edgeLabel;html=1;align=center;verticalAlign=middle;resizable=0;points=[];" vertex="1" connectable="0" parent="hM63zy9M-1fN7giM5BKr-11">
          <mxGeometry x="0.0416" relative="1" as="geometry">
            <mxPoint as="offset" />
          </mxGeometry>
        </mxCell>
        <mxCell id="hM63zy9M-1fN7giM5BKr-8" value="x = (a + b) / 2&lt;div&gt;f(x)&lt;/div&gt;" style="rounded=1;whiteSpace=wrap;html=1;absoluteArcSize=1;arcSize=0;strokeWidth=2;fontSize=14;" vertex="1" parent="1">
          <mxGeometry x="345.01" y="560" width="160" height="80" as="geometry" />
        </mxCell>
        <mxCell id="hM63zy9M-1fN7giM5BKr-13" value="" style="edgeStyle=orthogonalEdgeStyle;rounded=0;orthogonalLoop=1;jettySize=auto;html=1;" edge="1" parent="1" source="hM63zy9M-1fN7giM5BKr-10">
          <mxGeometry relative="1" as="geometry">
            <mxPoint x="425" y="860" as="targetPoint" />
          </mxGeometry>
        </mxCell>
        <mxCell id="hM63zy9M-1fN7giM5BKr-33" value="&lt;font style=&quot;font-size: 14px;&quot;&gt;T&lt;/font&gt;" style="edgeLabel;html=1;align=center;verticalAlign=middle;resizable=0;points=[];" vertex="1" connectable="0" parent="hM63zy9M-1fN7giM5BKr-13">
          <mxGeometry x="-0.2575" y="-1" relative="1" as="geometry">
            <mxPoint as="offset" />
          </mxGeometry>
        </mxCell>
        <mxCell id="hM63zy9M-1fN7giM5BKr-25" style="edgeStyle=orthogonalEdgeStyle;rounded=0;orthogonalLoop=1;jettySize=auto;html=1;exitX=0;exitY=0.5;exitDx=0;exitDy=0;exitPerimeter=0;entryX=1;entryY=0.5;entryDx=0;entryDy=0;" edge="1" parent="1" source="hM63zy9M-1fN7giM5BKr-10" target="hM63zy9M-1fN7giM5BKr-24">
          <mxGeometry relative="1" as="geometry" />
        </mxCell>
        <mxCell id="hM63zy9M-1fN7giM5BKr-30" value="&lt;span style=&quot;font-size: 14px;&quot;&gt;F&lt;/span&gt;" style="edgeLabel;html=1;align=center;verticalAlign=middle;resizable=0;points=[];" vertex="1" connectable="0" parent="hM63zy9M-1fN7giM5BKr-25">
          <mxGeometry x="0.0802" y="-1" relative="1" as="geometry">
            <mxPoint as="offset" />
          </mxGeometry>
        </mxCell>
        <mxCell id="hM63zy9M-1fN7giM5BKr-10" value="|f(x)| &amp;lt; tol&lt;div&gt;or&lt;/div&gt;&lt;div&gt;|b - a| &amp;lt; tol&lt;/div&gt;&lt;div&gt;?&lt;/div&gt;" style="strokeWidth=2;html=1;shape=mxgraph.flowchart.decision;whiteSpace=wrap;fontSize=14;" vertex="1" parent="1">
          <mxGeometry x="364.38" y="700" width="121.25" height="110" as="geometry" />
        </mxCell>
        <mxCell id="hM63zy9M-1fN7giM5BKr-19" style="edgeStyle=orthogonalEdgeStyle;rounded=0;orthogonalLoop=1;jettySize=auto;html=1;exitX=0;exitY=0.5;exitDx=0;exitDy=0;exitPerimeter=0;entryX=0.5;entryY=0;entryDx=0;entryDy=0;" edge="1" parent="1" source="hM63zy9M-1fN7giM5BKr-14" target="hM63zy9M-1fN7giM5BKr-15">
          <mxGeometry relative="1" as="geometry" />
        </mxCell>
        <mxCell id="hM63zy9M-1fN7giM5BKr-34" value="&lt;font style=&quot;font-size: 14px;&quot;&gt;T&lt;/font&gt;" style="edgeLabel;html=1;align=center;verticalAlign=middle;resizable=0;points=[];" vertex="1" connectable="0" parent="hM63zy9M-1fN7giM5BKr-19">
          <mxGeometry x="0.2121" relative="1" as="geometry">
            <mxPoint as="offset" />
          </mxGeometry>
        </mxCell>
        <mxCell id="hM63zy9M-1fN7giM5BKr-20" style="edgeStyle=orthogonalEdgeStyle;rounded=0;orthogonalLoop=1;jettySize=auto;html=1;exitX=1;exitY=0.5;exitDx=0;exitDy=0;exitPerimeter=0;entryX=0.5;entryY=0;entryDx=0;entryDy=0;" edge="1" parent="1" source="hM63zy9M-1fN7giM5BKr-14" target="hM63zy9M-1fN7giM5BKr-17">
          <mxGeometry relative="1" as="geometry" />
        </mxCell>
        <mxCell id="hM63zy9M-1fN7giM5BKr-35" value="&lt;font style=&quot;font-size: 14px;&quot;&gt;F&lt;/font&gt;" style="edgeLabel;html=1;align=center;verticalAlign=middle;resizable=0;points=[];" vertex="1" connectable="0" parent="hM63zy9M-1fN7giM5BKr-20">
          <mxGeometry x="0.0889" y="1" relative="1" as="geometry">
            <mxPoint as="offset" />
          </mxGeometry>
        </mxCell>
        <mxCell id="hM63zy9M-1fN7giM5BKr-14" value="f(a) * f(x)&lt;div&gt;&amp;lt; 0 ?&lt;/div&gt;" style="strokeWidth=2;html=1;shape=mxgraph.flowchart.decision;whiteSpace=wrap;fontSize=14;" vertex="1" parent="1">
          <mxGeometry x="364" y="860" width="121.25" height="110" as="geometry" />
        </mxCell>
        <mxCell id="hM63zy9M-1fN7giM5BKr-21" style="edgeStyle=orthogonalEdgeStyle;rounded=0;orthogonalLoop=1;jettySize=auto;html=1;exitX=1;exitY=0.5;exitDx=0;exitDy=0;entryX=0;entryY=0.5;entryDx=0;entryDy=0;endArrow=none;endFill=0;" edge="1" parent="1" source="hM63zy9M-1fN7giM5BKr-15" target="hM63zy9M-1fN7giM5BKr-17">
          <mxGeometry relative="1" as="geometry" />
        </mxCell>
        <mxCell id="hM63zy9M-1fN7giM5BKr-15" value="b = x" style="rounded=1;whiteSpace=wrap;html=1;absoluteArcSize=1;arcSize=0;strokeWidth=2;fontSize=14;" vertex="1" parent="1">
          <mxGeometry x="270" y="1000" width="94" height="50" as="geometry" />
        </mxCell>
        <mxCell id="hM63zy9M-1fN7giM5BKr-23" style="edgeStyle=orthogonalEdgeStyle;rounded=0;orthogonalLoop=1;jettySize=auto;html=1;exitX=0.5;exitY=1;exitDx=0;exitDy=0;endArrow=none;endFill=0;" edge="1" parent="1" source="hM63zy9M-1fN7giM5BKr-17">
          <mxGeometry relative="1" as="geometry">
            <mxPoint x="525" y="1100" as="targetPoint" />
          </mxGeometry>
        </mxCell>
        <mxCell id="hM63zy9M-1fN7giM5BKr-17" value="a = x" style="rounded=1;whiteSpace=wrap;html=1;absoluteArcSize=1;arcSize=0;strokeWidth=2;fontSize=14;" vertex="1" parent="1">
          <mxGeometry x="477.5" y="1000" width="94" height="50" as="geometry" />
        </mxCell>
        <mxCell id="hM63zy9M-1fN7giM5BKr-22" style="edgeStyle=orthogonalEdgeStyle;rounded=0;orthogonalLoop=1;jettySize=auto;html=1;exitX=0.5;exitY=1;exitDx=0;exitDy=0;entryX=1;entryY=0.5;entryDx=0;entryDy=0;entryPerimeter=0;" edge="1" parent="1" source="hM63zy9M-1fN7giM5BKr-15" target="hM63zy9M-1fN7giM5BKr-6">
          <mxGeometry relative="1" as="geometry">
            <Array as="points">
              <mxPoint x="317" y="1100" />
              <mxPoint x="650" y="1100" />
              <mxPoint x="650" y="455" />
            </Array>
          </mxGeometry>
        </mxCell>
        <mxCell id="hM63zy9M-1fN7giM5BKr-37" value="" style="edgeStyle=orthogonalEdgeStyle;rounded=0;orthogonalLoop=1;jettySize=auto;html=1;" edge="1" parent="1" source="hM63zy9M-1fN7giM5BKr-24" target="hM63zy9M-1fN7giM5BKr-36">
          <mxGeometry relative="1" as="geometry" />
        </mxCell>
        <mxCell id="hM63zy9M-1fN7giM5BKr-24" value="return x as root" style="rounded=1;whiteSpace=wrap;html=1;absoluteArcSize=1;arcSize=0;strokeWidth=2;fontSize=14;" vertex="1" parent="1">
          <mxGeometry x="80" y="715" width="160" height="80" as="geometry" />
        </mxCell>
        <mxCell id="hM63zy9M-1fN7giM5BKr-36" value="END" style="strokeWidth=2;html=1;shape=mxgraph.flowchart.terminator;whiteSpace=wrap;fontSize=14;" vertex="1" parent="1">
          <mxGeometry x="107.5" y="850" width="105" height="50" as="geometry" />
        </mxCell>
        <mxCell id="hM63zy9M-1fN7giM5BKr-39" value="throw error&lt;div&gt;root is undefined in this interval&lt;/div&gt;" style="rounded=1;whiteSpace=wrap;html=1;absoluteArcSize=1;arcSize=0;strokeWidth=2;fontSize=14;" vertex="1" parent="1">
          <mxGeometry x="80" y="255" width="160" height="80" as="geometry" />
        </mxCell>
        <mxCell id="hM63zy9M-1fN7giM5BKr-42" style="edgeStyle=orthogonalEdgeStyle;rounded=0;orthogonalLoop=1;jettySize=auto;html=1;exitX=0;exitY=0.5;exitDx=0;exitDy=0;entryX=0;entryY=0.5;entryDx=0;entryDy=0;entryPerimeter=0;" edge="1" parent="1" source="hM63zy9M-1fN7giM5BKr-39" target="hM63zy9M-1fN7giM5BKr-36">
          <mxGeometry relative="1" as="geometry">
            <Array as="points">
              <mxPoint x="40" y="295" />
              <mxPoint x="40" y="875" />
            </Array>
          </mxGeometry>
        </mxCell>
      </root>
    </mxGraphModel>
  </diagram>
</mxfile>
